<svg width="512" height="512" viewBox="0 0 512 512" fill="none" xmlns="http://www.w3.org/2000/svg">
  <rect width="512" height="512" rx="128" fill="#050806"/>
  <rect x="52" y="52" width="408" height="408" rx="108" fill="url(#paint0_linear)"/>
  <path d="M169 205C169 156.951 207.951 118 256 118C304.049 118 343 156.951 343 205V224H370C383.255 224 394 234.745 394 248V332C394 382.81 352.81 424 302 424H210C159.19 424 118 382.81 118 332V248C118 234.745 128.745 224 142 224H169V205Z" fill="#07110C"/>
  <path d="M202 205C202 175.729 225.729 152 255 152H257C286.271 152 310 175.729 310 205V224H202V205Z" fill="#39D975"/>
  <path d="M156 256H356V332C356 361.823 331.823 386 302 386H210C180.177 386 156 361.823 156 332V256Z" fill="#0A1812"/>
  <path d="M219 293C219 273.67 234.67 258 254 258H258C277.33 258 293 273.67 293 293V300C293 319.33 277.33 335 258 335H254C234.67 335 219 319.33 219 300V293Z" fill="#39D975"/>
  <path d="M201 365L312 254" stroke="#39D975" stroke-width="18" stroke-linecap="round"/>
  <defs>
    <linearGradient id="paint0_linear" x1="256" y1="52" x2="256" y2="460" gradientUnits="userSpaceOnUse">
      <stop stop-color="#102219"/>
      <stop offset="1" stop-color="#07110C"/>
    </linearGradient>
  </defs>
</svg>
